<?xml version="1.0"?>
<svg xmlns="http://www.w3.org/2000/svg" id="Capa_1" enable-background="new 0 0 512 512" height="512px" viewBox="0 0 512 512" width="512px"><g><g><path d="m467 185h-98.037c8.968-17.396 14.037-37.117 14.037-58 0-70.028-56.972-127-127-127s-127 56.972-127 127c0 20.883 5.069 40.604 14.037 58h-98.037c-24.813 0-45 20.187-45 45v237c0 14.867 7.252 28.068 18.399 36.266.285.227.585.425.883.628 7.296 5.102 16.16 8.106 25.718 8.106h422c9.555 0 18.417-3.002 25.712-8.101.3-.205.603-.405.89-.633 11.146-8.199 18.398-21.399 18.398-36.266v-237c0-24.813-20.187-45-45-45zm-437 282v-237c0-.94.098-1.857.264-2.75l154.404 120.072-154.304 122.924c-.232-1.046-.364-2.13-.364-3.246zm179.006-100.71 19.273 15.073c8.161 6.382 17.941 9.573 27.722 9.573s19.561-3.191 27.722-9.573l19.272-15.073 145.248 115.71h-384.486zm118.326-18.968 154.404-120.072c.166.893.264 1.81.264 2.75v237c0 1.116-.132 2.2-.364 3.246zm-71.332-317.322c53.486 0 97 43.514 97 97s-43.514 97-97 97-97-43.514-97-97 43.514-97 97-97zm0 224c35.897 0 68.359-14.974 91.479-39h101.14l-154.78 120.365-28.598 22.366c-5.441 4.256-13.041 4.255-18.482 0l-28.631-22.392-154.748-120.339h101.14c23.121 24.026 55.583 39 91.48 39z" data-original="#000000" class="active-path" data-old_color="#000000" fill="#FFFFFF"/><path d="m256 191c8.284 0 15-6.716 15-15v-48c0-8.284-6.716-15-15-15s-15 6.716-15 15v48c0 8.284 6.716 15 15 15z" data-original="#000000" class="active-path" data-old_color="#000000" fill="#FFFFFF"/><circle cx="256" cy="80.001" r="15" data-original="#000000" class="active-path" data-old_color="#000000" fill="#FFFFFF"/></g></g> </svg>
